<svg width="170" height="78" viewBox="0 0 170 78" fill="none" xmlns="http://www.w3.org/2000/svg">
<rect width="170" height="78" fill="#FFFEFE"/>
<g clip-path="url(#clip0_23_169)">
<path d="M4 43.3158C4 23.8114 20.2992 8 40.4054 8H83.4299V30.4737C83.4299 51.7512 65.6489 69 43.7149 69H4V43.3158Z" fill="#0F47F2"/>
<path d="M26.5532 30.6194C29.0354 30.6194 31.0004 31.2702 32.4483 32.7876C33.8963 34.3051 34.6203 36.3744 34.6203 38.9955V49.7369H30.1795V39.5222C30.1795 38.0424 29.7464 36.8572 28.8802 35.9668C28.027 35.0764 26.8958 34.6312 25.4866 34.6312C24.0257 34.6312 22.8557 35.0764 21.9766 35.9668C21.1105 36.8572 20.6774 38.0424 20.6774 39.5222V49.7369H16.2754V30.6194H20.6774V33.8599C21.2979 32.7939 22.1124 31.9725 23.1208 31.3956C24.1292 30.8061 25.2733 30.6194 26.5532 30.6194Z" fill="white"/>
<path d="M56.4751 49.7368H51.1617L46.6821 43.6419L42.2219 49.7368H36.9473L44.0448 40.03L37.3002 30.6062H42.7132L46.7209 36.3994L50.7242 30.6127H55.999L49.3776 39.9924L56.4751 49.7368Z" fill="white"/>
<path d="M70.8445 34.9884H65.7444V42.5695C65.7444 43.7107 66.0676 44.5573 66.714 45.1091C67.3733 45.6483 68.2718 45.918 69.4095 45.918C69.9654 45.918 70.4437 45.8678 70.8445 45.7675V49.7367C70.1593 49.8872 69.3643 49.9625 68.4593 49.9625C66.2745 49.9625 64.5356 49.3292 63.2428 48.0625C61.95 46.7958 61.3036 44.9899 61.3036 42.6447V34.9884H57.6191L57.6892 30.6126H61.3036V25.8459H65.7444V30.6126H70.8445V34.9884Z" fill="white"/>
<path d="M99.0148 30.6241C101.51 30.6241 103.488 31.3765 104.949 32.8815C106.422 34.3739 107.159 36.3993 107.159 38.9577V49.98H104.25V39.221C104.25 37.4276 103.714 35.9917 102.641 34.9131C101.581 33.8346 100.172 33.2953 98.4137 33.2953C96.6037 33.2953 95.1493 33.8409 94.0504 34.932C92.9645 36.0105 92.4215 37.4402 92.4215 39.221V49.9669H89.5127V25.8459H92.4215V34.6686C93.0421 33.3894 93.9212 32.3986 95.0588 31.6963C96.1965 30.9815 97.5152 30.6241 99.0148 30.6241Z" fill="#4B5563"/>
<path d="M140.126 30.6243C140.63 30.6243 141.231 30.6995 141.929 30.85V33.4837C141.296 33.2705 140.669 33.1639 140.048 33.1639C138.536 33.1639 137.262 33.6843 136.228 34.7252C135.207 35.7536 134.696 37.0579 134.696 38.6381V49.7369H131.787V30.6128H134.635L134.696 34.0104C135.265 32.9569 136.021 32.1292 136.965 31.5272C137.909 30.9253 138.962 30.6243 140.126 30.6243Z" fill="#4B5563"/>
<path d="M162 39.8044C162 40.3687 161.987 40.7261 161.961 40.8766H145.788C145.93 42.8832 146.641 44.501 147.921 45.7301C149.201 46.9591 150.85 47.5736 152.866 47.5736C154.418 47.5736 155.749 47.235 156.861 46.5578C157.986 45.868 158.678 44.9525 158.936 43.8113H161.845C161.47 45.705 160.449 47.2287 158.781 48.3825C157.113 49.5363 155.116 50.1132 152.789 50.1132C149.983 50.1132 147.637 49.1726 145.749 47.2914C143.875 45.4103 142.938 43.0651 142.938 40.2559C142.938 37.5595 143.888 35.2833 145.788 33.4272C147.689 31.5586 150.009 30.6243 152.75 30.6243C154.469 30.6243 156.034 31.0193 157.443 31.8094C158.852 32.587 159.964 33.678 160.778 35.0826C161.593 36.4873 162 38.0612 162 39.8044ZM145.924 38.4876H158.897C158.755 36.9325 158.102 35.6595 156.939 34.6688C155.788 33.6655 154.353 33.1639 152.634 33.1639C150.927 33.1639 149.466 33.6467 148.251 34.6124C147.036 35.578 146.26 36.8698 145.924 38.4876Z" fill="#4B5563"/>
<mask id="mask0_23_169" style="mask-type:luminance" maskUnits="userSpaceOnUse" x="4" y="8" width="158" height="61">
<path d="M4 43.3158C4 23.8114 20.2992 8 40.4054 8H83.4299V30.4737C83.4299 51.7512 65.6489 69 43.7149 69H4V43.3158Z" fill="white"/>
<path d="M26.5532 30.6194C29.0354 30.6194 31.0004 31.2702 32.4483 32.7876C33.8963 34.3051 34.6203 36.3744 34.6203 38.9955V49.7369H30.1795V39.5222C30.1795 38.0424 29.7464 36.8572 28.8802 35.9668C28.027 35.0764 26.8958 34.6312 25.4866 34.6312C24.0257 34.6312 22.8557 35.0764 21.9766 35.9668C21.1105 36.8572 20.6774 38.0424 20.6774 39.5222V49.7369H16.2754V30.6194H20.6774V33.8599C21.2979 32.7939 22.1124 31.9725 23.1208 31.3956C24.1292 30.8061 25.2733 30.6194 26.5532 30.6194Z" fill="white"/>
<path d="M56.4751 49.7368H51.1617L46.6821 43.6419L42.2219 49.7368H36.9473L44.0448 40.03L37.3002 30.6062H42.7132L46.7209 36.3994L50.7242 30.6127H55.999L49.3776 39.9924L56.4751 49.7368Z" fill="white"/>
<path d="M70.8445 34.9884H65.7444V42.5695C65.7444 43.7107 66.0676 44.5573 66.714 45.1091C67.3733 45.6483 68.2718 45.918 69.4095 45.918C69.9654 45.918 70.4437 45.8678 70.8445 45.7675V49.7367C70.1593 49.8872 69.3643 49.9625 68.4593 49.9625C66.2745 49.9625 64.5356 49.3292 63.2428 48.0625C61.95 46.7958 61.3036 44.9899 61.3036 42.6447V34.9884H57.6191L57.6892 30.6126H61.3036V25.8459H65.7444V30.6126H70.8445V34.9884Z" fill="white"/>
<path d="M99.0148 30.6241C101.51 30.6241 103.488 31.3765 104.949 32.8815C106.422 34.3739 107.159 36.3993 107.159 38.9577V49.98H104.25V39.221C104.25 37.4276 103.714 35.9917 102.641 34.9131C101.581 33.8346 100.172 33.2953 98.4137 33.2953C96.6037 33.2953 95.1493 33.8409 94.0504 34.932C92.9645 36.0105 92.4215 37.4402 92.4215 39.221V49.9669H89.5127V25.8459H92.4215V34.6686C93.0421 33.3894 93.9212 32.3986 95.0588 31.6963C96.1965 30.9815 97.5152 30.6241 99.0148 30.6241Z" fill="white"/>
<path d="M140.126 30.6243C140.63 30.6243 141.231 30.6995 141.929 30.85V33.4837C141.296 33.2705 140.669 33.1639 140.048 33.1639C138.536 33.1639 137.262 33.6843 136.228 34.7252C135.207 35.7536 134.696 37.0579 134.696 38.6381V49.7369H131.787V30.6128H134.635L134.696 34.0104C135.265 32.9569 136.021 32.1292 136.965 31.5272C137.909 30.9253 138.962 30.6243 140.126 30.6243Z" fill="white"/>
<path d="M162 39.8044C162 40.3687 161.987 40.7261 161.961 40.8766H145.788C145.93 42.8832 146.641 44.501 147.921 45.7301C149.201 46.9591 150.85 47.5736 152.866 47.5736C154.418 47.5736 155.749 47.235 156.861 46.5578C157.986 45.868 158.678 44.9525 158.936 43.8113H161.845C161.47 45.705 160.449 47.2287 158.781 48.3825C157.113 49.5363 155.116 50.1132 152.789 50.1132C149.983 50.1132 147.637 49.1726 145.749 47.2914C143.875 45.4103 142.938 43.0651 142.938 40.2559C142.938 37.5595 143.888 35.2833 145.788 33.4272C147.689 31.5586 150.009 30.6243 152.75 30.6243C154.469 30.6243 156.034 31.0193 157.443 31.8094C158.852 32.587 159.964 33.678 160.778 35.0826C161.593 36.4873 162 38.0612 162 39.8044ZM145.924 38.4876H158.897C158.755 36.9325 158.102 35.6595 156.939 34.6688C155.788 33.6655 154.353 33.1639 152.634 33.1639C150.927 33.1639 149.466 33.6467 148.251 34.6124C147.036 35.578 146.26 36.8698 145.924 38.4876Z" fill="white"/>
</mask>
<g mask="url(#mask0_23_169)">
<path d="M4 43.3158C4 23.8114 20.2992 8 40.4054 8H83.4299V30.4737C83.4299 51.7512 65.6489 69 43.7149 69H4V43.3158Z" stroke="white" stroke-opacity="0.26" stroke-width="0.2"/>
</g>
<mask id="mask1_23_169" style="mask-type:luminance" maskUnits="userSpaceOnUse" x="4" y="8" width="158" height="61">
<path d="M4 43.3158C4 23.8114 20.2992 8 40.4054 8H83.4299V30.4737C83.4299 51.7512 65.6489 69 43.7149 69H4V43.3158Z" fill="white"/>
<path d="M26.5532 30.6194C29.0354 30.6194 31.0004 31.2702 32.4483 32.7876C33.8963 34.3051 34.6203 36.3744 34.6203 38.9955V49.7369H30.1795V39.5222C30.1795 38.0424 29.7464 36.8572 28.8802 35.9668C28.027 35.0764 26.8958 34.6312 25.4866 34.6312C24.0257 34.6312 22.8557 35.0764 21.9766 35.9668C21.1105 36.8572 20.6774 38.0424 20.6774 39.5222V49.7369H16.2754V30.6194H20.6774V33.8599C21.2979 32.7939 22.1124 31.9725 23.1208 31.3956C24.1292 30.8061 25.2733 30.6194 26.5532 30.6194Z" fill="white"/>
<path d="M56.4751 49.7368H51.1617L46.6821 43.6419L42.2219 49.7368H36.9473L44.0448 40.03L37.3002 30.6062H42.7132L46.7209 36.3994L50.7242 30.6127H55.999L49.3776 39.9924L56.4751 49.7368Z" fill="white"/>
<path d="M70.8445 34.9884H65.7444V42.5695C65.7444 43.7107 66.0676 44.5573 66.714 45.1091C67.3733 45.6483 68.2718 45.918 69.4095 45.918C69.9654 45.918 70.4437 45.8678 70.8445 45.7675V49.7367C70.1593 49.8872 69.3643 49.9625 68.4593 49.9625C66.2745 49.9625 64.5356 49.3292 63.2428 48.0625C61.95 46.7958 61.3036 44.9899 61.3036 42.6447V34.9884H57.6191L57.6892 30.6126H61.3036V25.8459H65.7444V30.6126H70.8445V34.9884Z" fill="white"/>
<path d="M99.0148 30.6241C101.51 30.6241 103.488 31.3765 104.949 32.8815C106.422 34.3739 107.159 36.3993 107.159 38.9577V49.98H104.25V39.221C104.25 37.4276 103.714 35.9917 102.641 34.9131C101.581 33.8346 100.172 33.2953 98.4137 33.2953C96.6037 33.2953 95.1493 33.8409 94.0504 34.932C92.9645 36.0105 92.4215 37.4402 92.4215 39.221V49.9669H89.5127V25.8459H92.4215V34.6686C93.0421 33.3894 93.9212 32.3986 95.0588 31.6963C96.1965 30.9815 97.5152 30.6241 99.0148 30.6241Z" fill="white"/>
<path d="M140.126 30.6243C140.63 30.6243 141.231 30.6995 141.929 30.85V33.4837C141.296 33.2705 140.669 33.1639 140.048 33.1639C138.536 33.1639 137.262 33.6843 136.228 34.7252C135.207 35.7536 134.696 37.0579 134.696 38.6381V49.7369H131.787V30.6128H134.635L134.696 34.0104C135.265 32.9569 136.021 32.1292 136.965 31.5272C137.909 30.9253 138.962 30.6243 140.126 30.6243Z" fill="white"/>
<path d="M162 39.8044C162 40.3687 161.987 40.7261 161.961 40.8766H145.788C145.93 42.8832 146.641 44.501 147.921 45.7301C149.201 46.9591 150.85 47.5736 152.866 47.5736C154.418 47.5736 155.749 47.235 156.861 46.5578C157.986 45.868 158.678 44.9525 158.936 43.8113H161.845C161.47 45.705 160.449 47.2287 158.781 48.3825C157.113 49.5363 155.116 50.1132 152.789 50.1132C149.983 50.1132 147.637 49.1726 145.749 47.2914C143.875 45.4103 142.938 43.0651 142.938 40.2559C142.938 37.5595 143.888 35.2833 145.788 33.4272C147.689 31.5586 150.009 30.6243 152.75 30.6243C154.469 30.6243 156.034 31.0193 157.443 31.8094C158.852 32.587 159.964 33.678 160.778 35.0826C161.593 36.4873 162 38.0612 162 39.8044ZM145.924 38.4876H158.897C158.755 36.9325 158.102 35.6595 156.939 34.6688C155.788 33.6655 154.353 33.1639 152.634 33.1639C150.927 33.1639 149.466 33.6467 148.251 34.6124C147.036 35.578 146.26 36.8698 145.924 38.4876Z" fill="white"/>
</mask>
<g mask="url(#mask1_23_169)">
<path d="M26.5532 30.6194C29.0354 30.6194 31.0004 31.2702 32.4483 32.7876C33.8963 34.3051 34.6203 36.3744 34.6203 38.9955V49.7369H30.1795V39.5222C30.1795 38.0424 29.7464 36.8572 28.8802 35.9668C28.027 35.0764 26.8958 34.6312 25.4866 34.6312C24.0257 34.6312 22.8557 35.0764 21.9766 35.9668C21.1105 36.8572 20.6774 38.0424 20.6774 39.5222V49.7369H16.2754V30.6194H20.6774V33.8599C21.2979 32.7939 22.1124 31.9725 23.1208 31.3956C24.1292 30.8061 25.2733 30.6194 26.5532 30.6194Z" stroke="white" stroke-opacity="0.26" stroke-width="0.2"/>
</g>
<mask id="mask2_23_169" style="mask-type:luminance" maskUnits="userSpaceOnUse" x="4" y="8" width="158" height="61">
<path d="M4 43.3158C4 23.8114 20.2992 8 40.4054 8H83.4299V30.4737C83.4299 51.7512 65.6489 69 43.7149 69H4V43.3158Z" fill="white"/>
<path d="M26.5532 30.6194C29.0354 30.6194 31.0004 31.2702 32.4483 32.7876C33.8963 34.3051 34.6203 36.3744 34.6203 38.9955V49.7369H30.1795V39.5222C30.1795 38.0424 29.7464 36.8572 28.8802 35.9668C28.027 35.0764 26.8958 34.6312 25.4866 34.6312C24.0257 34.6312 22.8557 35.0764 21.9766 35.9668C21.1105 36.8572 20.6774 38.0424 20.6774 39.5222V49.7369H16.2754V30.6194H20.6774V33.8599C21.2979 32.7939 22.1124 31.9725 23.1208 31.3956C24.1292 30.8061 25.2733 30.6194 26.5532 30.6194Z" fill="white"/>
<path d="M56.4751 49.7368H51.1617L46.6821 43.6419L42.2219 49.7368H36.9473L44.0448 40.03L37.3002 30.6062H42.7132L46.7209 36.3994L50.7242 30.6127H55.999L49.3776 39.9924L56.4751 49.7368Z" fill="white"/>
<path d="M70.8445 34.9884H65.7444V42.5695C65.7444 43.7107 66.0676 44.5573 66.714 45.1091C67.3733 45.6483 68.2718 45.918 69.4095 45.918C69.9654 45.918 70.4437 45.8678 70.8445 45.7675V49.7367C70.1593 49.8872 69.3643 49.9625 68.4593 49.9625C66.2745 49.9625 64.5356 49.3292 63.2428 48.0625C61.95 46.7958 61.3036 44.9899 61.3036 42.6447V34.9884H57.6191L57.6892 30.6126H61.3036V25.8459H65.7444V30.6126H70.8445V34.9884Z" fill="white"/>
<path d="M99.0148 30.6241C101.51 30.6241 103.488 31.3765 104.949 32.8815C106.422 34.3739 107.159 36.3993 107.159 38.9577V49.98H104.25V39.221C104.25 37.4276 103.714 35.9917 102.641 34.9131C101.581 33.8346 100.172 33.2953 98.4137 33.2953C96.6037 33.2953 95.1493 33.8409 94.0504 34.932C92.9645 36.0105 92.4215 37.4402 92.4215 39.221V49.9669H89.5127V25.8459H92.4215V34.6686C93.0421 33.3894 93.9212 32.3986 95.0588 31.6963C96.1965 30.9815 97.5152 30.6241 99.0148 30.6241Z" fill="white"/>
<path d="M140.126 30.6243C140.63 30.6243 141.231 30.6995 141.929 30.85V33.4837C141.296 33.2705 140.669 33.1639 140.048 33.1639C138.536 33.1639 137.262 33.6843 136.228 34.7252C135.207 35.7536 134.696 37.0579 134.696 38.6381V49.7369H131.787V30.6128H134.635L134.696 34.0104C135.265 32.9569 136.021 32.1292 136.965 31.5272C137.909 30.9253 138.962 30.6243 140.126 30.6243Z" fill="white"/>
<path d="M162 39.8044C162 40.3687 161.987 40.7261 161.961 40.8766H145.788C145.93 42.8832 146.641 44.501 147.921 45.7301C149.201 46.9591 150.85 47.5736 152.866 47.5736C154.418 47.5736 155.749 47.235 156.861 46.5578C157.986 45.868 158.678 44.9525 158.936 43.8113H161.845C161.47 45.705 160.449 47.2287 158.781 48.3825C157.113 49.5363 155.116 50.1132 152.789 50.1132C149.983 50.1132 147.637 49.1726 145.749 47.2914C143.875 45.4103 142.938 43.0651 142.938 40.2559C142.938 37.5595 143.888 35.2833 145.788 33.4272C147.689 31.5586 150.009 30.6243 152.75 30.6243C154.469 30.6243 156.034 31.0193 157.443 31.8094C158.852 32.587 159.964 33.678 160.778 35.0826C161.593 36.4873 162 38.0612 162 39.8044ZM145.924 38.4876H158.897C158.755 36.9325 158.102 35.6595 156.939 34.6688C155.788 33.6655 154.353 33.1639 152.634 33.1639C150.927 33.1639 149.466 33.6467 148.251 34.6124C147.036 35.578 146.26 36.8698 145.924 38.4876Z" fill="white"/>
</mask>
<g mask="url(#mask2_23_169)">
<path d="M56.4751 49.7368H51.1617L46.6821 43.6419L42.2219 49.7368H36.9473L44.0448 40.03L37.3002 30.6062H42.7132L46.7209 36.3994L50.7242 30.6127H55.999L49.3776 39.9924L56.4751 49.7368Z" stroke="white" stroke-opacity="0.26" stroke-width="0.2"/>
</g>
<mask id="mask3_23_169" style="mask-type:luminance" maskUnits="userSpaceOnUse" x="4" y="8" width="158" height="61">
<path d="M4 43.3158C4 23.8114 20.2992 8 40.4054 8H83.4299V30.4737C83.4299 51.7512 65.6489 69 43.7149 69H4V43.3158Z" fill="white"/>
<path d="M26.5532 30.6194C29.0354 30.6194 31.0004 31.2702 32.4483 32.7876C33.8963 34.3051 34.6203 36.3744 34.6203 38.9955V49.7369H30.1795V39.5222C30.1795 38.0424 29.7464 36.8572 28.8802 35.9668C28.027 35.0764 26.8958 34.6312 25.4866 34.6312C24.0257 34.6312 22.8557 35.0764 21.9766 35.9668C21.1105 36.8572 20.6774 38.0424 20.6774 39.5222V49.7369H16.2754V30.6194H20.6774V33.8599C21.2979 32.7939 22.1124 31.9725 23.1208 31.3956C24.1292 30.8061 25.2733 30.6194 26.5532 30.6194Z" fill="white"/>
<path d="M56.4751 49.7368H51.1617L46.6821 43.6419L42.2219 49.7368H36.9473L44.0448 40.03L37.3002 30.6062H42.7132L46.7209 36.3994L50.7242 30.6127H55.999L49.3776 39.9924L56.4751 49.7368Z" fill="white"/>
<path d="M70.8445 34.9884H65.7444V42.5695C65.7444 43.7107 66.0676 44.5573 66.714 45.1091C67.3733 45.6483 68.2718 45.918 69.4095 45.918C69.9654 45.918 70.4437 45.8678 70.8445 45.7675V49.7367C70.1593 49.8872 69.3643 49.9625 68.4593 49.9625C66.2745 49.9625 64.5356 49.3292 63.2428 48.0625C61.95 46.7958 61.3036 44.9899 61.3036 42.6447V34.9884H57.6191L57.6892 30.6126H61.3036V25.8459H65.7444V30.6126H70.8445V34.9884Z" fill="white"/>
<path d="M99.0148 30.6241C101.51 30.6241 103.488 31.3765 104.949 32.8815C106.422 34.3739 107.159 36.3993 107.159 38.9577V49.98H104.25V39.221C104.25 37.4276 103.714 35.9917 102.641 34.9131C101.581 33.8346 100.172 33.2953 98.4137 33.2953C96.6037 33.2953 95.1493 33.8409 94.0504 34.932C92.9645 36.0105 92.4215 37.4402 92.4215 39.221V49.9669H89.5127V25.8459H92.4215V34.6686C93.0421 33.3894 93.9212 32.3986 95.0588 31.6963C96.1965 30.9815 97.5152 30.6241 99.0148 30.6241Z" fill="white"/>
<path d="M140.126 30.6243C140.63 30.6243 141.231 30.6995 141.929 30.85V33.4837C141.296 33.2705 140.669 33.1639 140.048 33.1639C138.536 33.1639 137.262 33.6843 136.228 34.7252C135.207 35.7536 134.696 37.0579 134.696 38.6381V49.7369H131.787V30.6128H134.635L134.696 34.0104C135.265 32.9569 136.021 32.1292 136.965 31.5272C137.909 30.9253 138.962 30.6243 140.126 30.6243Z" fill="white"/>
<path d="M162 39.8044C162 40.3687 161.987 40.7261 161.961 40.8766H145.788C145.93 42.8832 146.641 44.501 147.921 45.7301C149.201 46.9591 150.85 47.5736 152.866 47.5736C154.418 47.5736 155.749 47.235 156.861 46.5578C157.986 45.868 158.678 44.9525 158.936 43.8113H161.845C161.47 45.705 160.449 47.2287 158.781 48.3825C157.113 49.5363 155.116 50.1132 152.789 50.1132C149.983 50.1132 147.637 49.1726 145.749 47.2914C143.875 45.4103 142.938 43.0651 142.938 40.2559C142.938 37.5595 143.888 35.2833 145.788 33.4272C147.689 31.5586 150.009 30.6243 152.75 30.6243C154.469 30.6243 156.034 31.0193 157.443 31.8094C158.852 32.587 159.964 33.678 160.778 35.0826C161.593 36.4873 162 38.0612 162 39.8044ZM145.924 38.4876H158.897C158.755 36.9325 158.102 35.6595 156.939 34.6688C155.788 33.6655 154.353 33.1639 152.634 33.1639C150.927 33.1639 149.466 33.6467 148.251 34.6124C147.036 35.578 146.26 36.8698 145.924 38.4876Z" fill="white"/>
</mask>
<g mask="url(#mask3_23_169)">
<path d="M70.8445 34.9884H65.7444V42.5695C65.7444 43.7107 66.0676 44.5573 66.714 45.1091C67.3733 45.6483 68.2718 45.918 69.4095 45.918C69.9654 45.918 70.4437 45.8678 70.8445 45.7675V49.7367C70.1593 49.8872 69.3643 49.9625 68.4593 49.9625C66.2745 49.9625 64.5356 49.3292 63.2428 48.0625C61.95 46.7958 61.3036 44.9899 61.3036 42.6447V34.9884H57.6191L57.6892 30.6126H61.3036V25.8459H65.7444V30.6126H70.8445V34.9884Z" stroke="white" stroke-opacity="0.26" stroke-width="0.2"/>
</g>
<mask id="mask4_23_169" style="mask-type:luminance" maskUnits="userSpaceOnUse" x="4" y="8" width="158" height="61">
<path d="M4 43.3158C4 23.8114 20.2992 8 40.4054 8H83.4299V30.4737C83.4299 51.7512 65.6489 69 43.7149 69H4V43.3158Z" fill="white"/>
<path d="M26.5532 30.6194C29.0354 30.6194 31.0004 31.2702 32.4483 32.7876C33.8963 34.3051 34.6203 36.3744 34.6203 38.9955V49.7369H30.1795V39.5222C30.1795 38.0424 29.7464 36.8572 28.8802 35.9668C28.027 35.0764 26.8958 34.6312 25.4866 34.6312C24.0257 34.6312 22.8557 35.0764 21.9766 35.9668C21.1105 36.8572 20.6774 38.0424 20.6774 39.5222V49.7369H16.2754V30.6194H20.6774V33.8599C21.2979 32.7939 22.1124 31.9725 23.1208 31.3956C24.1292 30.8061 25.2733 30.6194 26.5532 30.6194Z" fill="white"/>
<path d="M56.4751 49.7368H51.1617L46.6821 43.6419L42.2219 49.7368H36.9473L44.0448 40.03L37.3002 30.6062H42.7132L46.7209 36.3994L50.7242 30.6127H55.999L49.3776 39.9924L56.4751 49.7368Z" fill="white"/>
<path d="M70.8445 34.9884H65.7444V42.5695C65.7444 43.7107 66.0676 44.5573 66.714 45.1091C67.3733 45.6483 68.2718 45.918 69.4095 45.918C69.9654 45.918 70.4437 45.8678 70.8445 45.7675V49.7367C70.1593 49.8872 69.3643 49.9625 68.4593 49.9625C66.2745 49.9625 64.5356 49.3292 63.2428 48.0625C61.95 46.7958 61.3036 44.9899 61.3036 42.6447V34.9884H57.6191L57.6892 30.6126H61.3036V25.8459H65.7444V30.6126H70.8445V34.9884Z" fill="white"/>
<path d="M99.0148 30.6241C101.51 30.6241 103.488 31.3765 104.949 32.8815C106.422 34.3739 107.159 36.3993 107.159 38.9577V49.98H104.25V39.221C104.25 37.4276 103.714 35.9917 102.641 34.9131C101.581 33.8346 100.172 33.2953 98.4137 33.2953C96.6037 33.2953 95.1493 33.8409 94.0504 34.932C92.9645 36.0105 92.4215 37.4402 92.4215 39.221V49.9669H89.5127V25.8459H92.4215V34.6686C93.0421 33.3894 93.9212 32.3986 95.0588 31.6963C96.1965 30.9815 97.5152 30.6241 99.0148 30.6241Z" fill="white"/>
<path d="M140.126 30.6243C140.63 30.6243 141.231 30.6995 141.929 30.85V33.4837C141.296 33.2705 140.669 33.1639 140.048 33.1639C138.536 33.1639 137.262 33.6843 136.228 34.7252C135.207 35.7536 134.696 37.0579 134.696 38.6381V49.7369H131.787V30.6128H134.635L134.696 34.0104C135.265 32.9569 136.021 32.1292 136.965 31.5272C137.909 30.9253 138.962 30.6243 140.126 30.6243Z" fill="white"/>
<path d="M162 39.8044C162 40.3687 161.987 40.7261 161.961 40.8766H145.788C145.93 42.8832 146.641 44.501 147.921 45.7301C149.201 46.9591 150.85 47.5736 152.866 47.5736C154.418 47.5736 155.749 47.235 156.861 46.5578C157.986 45.868 158.678 44.9525 158.936 43.8113H161.845C161.47 45.705 160.449 47.2287 158.781 48.3825C157.113 49.5363 155.116 50.1132 152.789 50.1132C149.983 50.1132 147.637 49.1726 145.749 47.2914C143.875 45.4103 142.938 43.0651 142.938 40.2559C142.938 37.5595 143.888 35.2833 145.788 33.4272C147.689 31.5586 150.009 30.6243 152.75 30.6243C154.469 30.6243 156.034 31.0193 157.443 31.8094C158.852 32.587 159.964 33.678 160.778 35.0826C161.593 36.4873 162 38.0612 162 39.8044ZM145.924 38.4876H158.897C158.755 36.9325 158.102 35.6595 156.939 34.6688C155.788 33.6655 154.353 33.1639 152.634 33.1639C150.927 33.1639 149.466 33.6467 148.251 34.6124C147.036 35.578 146.26 36.8698 145.924 38.4876Z" fill="white"/>
</mask>
<g mask="url(#mask4_23_169)">
<path d="M99.0148 30.6241C101.51 30.6241 103.488 31.3765 104.949 32.8815C106.422 34.3739 107.159 36.3993 107.159 38.9577V49.98H104.25V39.221C104.25 37.4276 103.714 35.9917 102.641 34.9131C101.581 33.8346 100.172 33.2953 98.4137 33.2953C96.6037 33.2953 95.1493 33.8409 94.0504 34.932C92.9645 36.0105 92.4215 37.4402 92.4215 39.221V49.9669H89.5127V25.8459H92.4215V34.6686C93.0421 33.3894 93.9212 32.3986 95.0588 31.6963C96.1965 30.9815 97.5152 30.6241 99.0148 30.6241Z" stroke="white" stroke-opacity="0.26" stroke-width="0.2"/>
</g>
<mask id="mask5_23_169" style="mask-type:luminance" maskUnits="userSpaceOnUse" x="4" y="8" width="158" height="61">
<path d="M4 43.3158C4 23.8114 20.2992 8 40.4054 8H83.4299V30.4737C83.4299 51.7512 65.6489 69 43.7149 69H4V43.3158Z" fill="white"/>
<path d="M26.5532 30.6194C29.0354 30.6194 31.0004 31.2702 32.4483 32.7876C33.8963 34.3051 34.6203 36.3744 34.6203 38.9955V49.7369H30.1795V39.5222C30.1795 38.0424 29.7464 36.8572 28.8802 35.9668C28.027 35.0764 26.8958 34.6312 25.4866 34.6312C24.0257 34.6312 22.8557 35.0764 21.9766 35.9668C21.1105 36.8572 20.6774 38.0424 20.6774 39.5222V49.7369H16.2754V30.6194H20.6774V33.8599C21.2979 32.7939 22.1124 31.9725 23.1208 31.3956C24.1292 30.8061 25.2733 30.6194 26.5532 30.6194Z" fill="white"/>
<path d="M56.4751 49.7368H51.1617L46.6821 43.6419L42.2219 49.7368H36.9473L44.0448 40.03L37.3002 30.6062H42.7132L46.7209 36.3994L50.7242 30.6127H55.999L49.3776 39.9924L56.4751 49.7368Z" fill="white"/>
<path d="M70.8445 34.9884H65.7444V42.5695C65.7444 43.7107 66.0676 44.5573 66.714 45.1091C67.3733 45.6483 68.2718 45.918 69.4095 45.918C69.9654 45.918 70.4437 45.8678 70.8445 45.7675V49.7367C70.1593 49.8872 69.3643 49.9625 68.4593 49.9625C66.2745 49.9625 64.5356 49.3292 63.2428 48.0625C61.95 46.7958 61.3036 44.9899 61.3036 42.6447V34.9884H57.6191L57.6892 30.6126H61.3036V25.8459H65.7444V30.6126H70.8445V34.9884Z" fill="white"/>
<path d="M99.0148 30.6241C101.51 30.6241 103.488 31.3765 104.949 32.8815C106.422 34.3739 107.159 36.3993 107.159 38.9577V49.98H104.25V39.221C104.25 37.4276 103.714 35.9917 102.641 34.9131C101.581 33.8346 100.172 33.2953 98.4137 33.2953C96.6037 33.2953 95.1493 33.8409 94.0504 34.932C92.9645 36.0105 92.4215 37.4402 92.4215 39.221V49.9669H89.5127V25.8459H92.4215V34.6686C93.0421 33.3894 93.9212 32.3986 95.0588 31.6963C96.1965 30.9815 97.5152 30.6241 99.0148 30.6241Z" fill="white"/>
<path d="M140.126 30.6243C140.63 30.6243 141.231 30.6995 141.929 30.85V33.4837C141.296 33.2705 140.669 33.1639 140.048 33.1639C138.536 33.1639 137.262 33.6843 136.228 34.7252C135.207 35.7536 134.696 37.0579 134.696 38.6381V49.7369H131.787V30.6128H134.635L134.696 34.0104C135.265 32.9569 136.021 32.1292 136.965 31.5272C137.909 30.9253 138.962 30.6243 140.126 30.6243Z" fill="white"/>
<path d="M162 39.8044C162 40.3687 161.987 40.7261 161.961 40.8766H145.788C145.93 42.8832 146.641 44.501 147.921 45.7301C149.201 46.9591 150.85 47.5736 152.866 47.5736C154.418 47.5736 155.749 47.235 156.861 46.5578C157.986 45.868 158.678 44.9525 158.936 43.8113H161.845C161.47 45.705 160.449 47.2287 158.781 48.3825C157.113 49.5363 155.116 50.1132 152.789 50.1132C149.983 50.1132 147.637 49.1726 145.749 47.2914C143.875 45.4103 142.938 43.0651 142.938 40.2559C142.938 37.5595 143.888 35.2833 145.788 33.4272C147.689 31.5586 150.009 30.6243 152.75 30.6243C154.469 30.6243 156.034 31.0193 157.443 31.8094C158.852 32.587 159.964 33.678 160.778 35.0826C161.593 36.4873 162 38.0612 162 39.8044ZM145.924 38.4876H158.897C158.755 36.9325 158.102 35.6595 156.939 34.6688C155.788 33.6655 154.353 33.1639 152.634 33.1639C150.927 33.1639 149.466 33.6467 148.251 34.6124C147.036 35.578 146.26 36.8698 145.924 38.4876Z" fill="white"/>
</mask>
<g mask="url(#mask5_23_169)">
<path d="M140.126 30.6243C140.63 30.6243 141.231 30.6995 141.929 30.85V33.4837C141.296 33.2705 140.669 33.1639 140.048 33.1639C138.536 33.1639 137.262 33.6843 136.228 34.7252C135.207 35.7536 134.696 37.0579 134.696 38.6381V49.7369H131.787V30.6128H134.635L134.696 34.0104C135.265 32.9569 136.021 32.1292 136.965 31.5272C137.909 30.9253 138.962 30.6243 140.126 30.6243Z" stroke="white" stroke-opacity="0.26" stroke-width="0.2"/>
</g>
<mask id="mask6_23_169" style="mask-type:luminance" maskUnits="userSpaceOnUse" x="4" y="8" width="158" height="61">
<path d="M4 43.3158C4 23.8114 20.2992 8 40.4054 8H83.4299V30.4737C83.4299 51.7512 65.6489 69 43.7149 69H4V43.3158Z" fill="white"/>
<path d="M26.5532 30.6194C29.0354 30.6194 31.0004 31.2702 32.4483 32.7876C33.8963 34.3051 34.6203 36.3744 34.6203 38.9955V49.7369H30.1795V39.5222C30.1795 38.0424 29.7464 36.8572 28.8802 35.9668C28.027 35.0764 26.8958 34.6312 25.4866 34.6312C24.0257 34.6312 22.8557 35.0764 21.9766 35.9668C21.1105 36.8572 20.6774 38.0424 20.6774 39.5222V49.7369H16.2754V30.6194H20.6774V33.8599C21.2979 32.7939 22.1124 31.9725 23.1208 31.3956C24.1292 30.8061 25.2733 30.6194 26.5532 30.6194Z" fill="white"/>
<path d="M56.4751 49.7368H51.1617L46.6821 43.6419L42.2219 49.7368H36.9473L44.0448 40.03L37.3002 30.6062H42.7132L46.7209 36.3994L50.7242 30.6127H55.999L49.3776 39.9924L56.4751 49.7368Z" fill="white"/>
<path d="M70.8445 34.9884H65.7444V42.5695C65.7444 43.7107 66.0676 44.5573 66.714 45.1091C67.3733 45.6483 68.2718 45.918 69.4095 45.918C69.9654 45.918 70.4437 45.8678 70.8445 45.7675V49.7367C70.1593 49.8872 69.3643 49.9625 68.4593 49.9625C66.2745 49.9625 64.5356 49.3292 63.2428 48.0625C61.95 46.7958 61.3036 44.9899 61.3036 42.6447V34.9884H57.6191L57.6892 30.6126H61.3036V25.8459H65.7444V30.6126H70.8445V34.9884Z" fill="white"/>
<path d="M99.0148 30.6241C101.51 30.6241 103.488 31.3765 104.949 32.8815C106.422 34.3739 107.159 36.3993 107.159 38.9577V49.98H104.25V39.221C104.25 37.4276 103.714 35.9917 102.641 34.9131C101.581 33.8346 100.172 33.2953 98.4137 33.2953C96.6037 33.2953 95.1493 33.8409 94.0504 34.932C92.9645 36.0105 92.4215 37.4402 92.4215 39.221V49.9669H89.5127V25.8459H92.4215V34.6686C93.0421 33.3894 93.9212 32.3986 95.0588 31.6963C96.1965 30.9815 97.5152 30.6241 99.0148 30.6241Z" fill="white"/>
<path d="M140.126 30.6243C140.63 30.6243 141.231 30.6995 141.929 30.85V33.4837C141.296 33.2705 140.669 33.1639 140.048 33.1639C138.536 33.1639 137.262 33.6843 136.228 34.7252C135.207 35.7536 134.696 37.0579 134.696 38.6381V49.7369H131.787V30.6128H134.635L134.696 34.0104C135.265 32.9569 136.021 32.1292 136.965 31.5272C137.909 30.9253 138.962 30.6243 140.126 30.6243Z" fill="white"/>
<path d="M162 39.8044C162 40.3687 161.987 40.7261 161.961 40.8766H145.788C145.93 42.8832 146.641 44.501 147.921 45.7301C149.201 46.9591 150.85 47.5736 152.866 47.5736C154.418 47.5736 155.749 47.235 156.861 46.5578C157.986 45.868 158.678 44.9525 158.936 43.8113H161.845C161.47 45.705 160.449 47.2287 158.781 48.3825C157.113 49.5363 155.116 50.1132 152.789 50.1132C149.983 50.1132 147.637 49.1726 145.749 47.2914C143.875 45.4103 142.938 43.0651 142.938 40.2559C142.938 37.5595 143.888 35.2833 145.788 33.4272C147.689 31.5586 150.009 30.6243 152.75 30.6243C154.469 30.6243 156.034 31.0193 157.443 31.8094C158.852 32.587 159.964 33.678 160.778 35.0826C161.593 36.4873 162 38.0612 162 39.8044ZM145.924 38.4876H158.897C158.755 36.9325 158.102 35.6595 156.939 34.6688C155.788 33.6655 154.353 33.1639 152.634 33.1639C150.927 33.1639 149.466 33.6467 148.251 34.6124C147.036 35.578 146.26 36.8698 145.924 38.4876Z" fill="white"/>
</mask>
<g mask="url(#mask6_23_169)">
<path d="M162 39.8044C162 40.3687 161.987 40.7261 161.961 40.8766H145.788C145.93 42.8832 146.641 44.501 147.921 45.7301C149.201 46.9591 150.85 47.5736 152.866 47.5736C154.418 47.5736 155.749 47.235 156.861 46.5578C157.986 45.868 158.678 44.9525 158.936 43.8113H161.845C161.47 45.705 160.449 47.2287 158.781 48.3825C157.113 49.5363 155.116 50.1132 152.789 50.1132C149.983 50.1132 147.637 49.1726 145.749 47.2914C143.875 45.4103 142.938 43.0651 142.938 40.2559C142.938 37.5595 143.888 35.2833 145.788 33.4272C147.689 31.5586 150.009 30.6243 152.75 30.6243C154.469 30.6243 156.034 31.0193 157.443 31.8094C158.852 32.587 159.964 33.678 160.778 35.0826C161.593 36.4873 162 38.0612 162 39.8044ZM145.924 38.4876H158.897C158.755 36.9325 158.102 35.6595 156.939 34.6688C155.788 33.6655 154.353 33.1639 152.634 33.1639C150.927 33.1639 149.466 33.6467 148.251 34.6124C147.036 35.578 146.26 36.8698 145.924 38.4876Z" stroke="white" stroke-opacity="0.26" stroke-width="0.2"/>
</g>
<path d="M73.7191 10L75.6001 15.0893L81.2429 17.5L75.6001 19.375L73.7191 25L71.8382 19.375L66.1953 17.5L71.8382 15.0893L73.7191 10Z" fill="white"/>
<path d="M109.439 30.6284C109.463 33.0587 110.437 35.8517 112.178 37.5531C113.92 39.2544 116.267 40.1966 118.705 40.1723C121.143 40.148 123.472 39.1593 125.179 37.4237C126.885 35.688 127.853 33.0653 127.829 30.635H125.099C125.117 32.357 124.475 34.3243 123.265 35.5541C122.056 36.784 120.406 37.4845 118.679 37.5017C116.951 37.5189 115.288 36.8513 114.054 35.6458C112.82 34.4403 112.133 32.3504 112.116 30.6284H109.439Z" fill="#4B5563"/>
<path d="M111.565 47.1202C112.894 48.6672 114.701 49.7266 116.701 50.1305C118.7 50.5345 120.777 50.2599 122.602 49.3503C124.428 48.4408 125.898 46.9481 126.779 45.1089C127.661 43.2696 127.903 41.1888 127.469 39.196L124.807 39.7763C125.113 41.1767 124.942 42.6389 124.322 43.9314C123.703 45.2239 122.67 46.2728 121.387 46.9119C120.104 47.5511 118.645 47.744 117.24 47.4602C115.835 47.1763 114.565 46.4319 113.631 45.3448L111.565 47.1202Z" fill="#0F47F2"/>
</g>
<defs>
<clipPath id="clip0_23_169">
<rect width="158" height="61" fill="white" transform="translate(4 8)"/>
</clipPath>
</defs>
</svg>
